<?xml version="1.0" standalone="no"?>
<!DOCTYPE svg PUBLIC "-//W3C//DTD SVG 20010904//EN"
 "http://www.w3.org/TR/2001/REC-SVG-20010904/DTD/svg10.dtd">
<svg version="1.0" xmlns="http://www.w3.org/2000/svg"
 width="260.000000pt" height="260.000000pt" viewBox="0 0 260.000000 260.000000"
 preserveAspectRatio="xMidYMid meet">
<metadata>
Created by potrace 1.11, written by Peter Selinger 2001-2013
</metadata>
<g transform="translate(0.000000,260.000000) scale(0.100000,-0.100000)"
fill="#000000" stroke="none">
<path d="M0 1300 l0 -1300 1300 0 1300 0 0 1300 0 1300 -1300 0 -1300 0 0
-1300z m1538 891 c153 -45 269 -111 385 -221 117 -109 200 -246 248 -405 26
-88 37 -306 20 -397 -67 -355 -309 -619 -658 -720 -66 -19 -102 -23 -233 -23
-131 0 -167 4 -233 23 -267 77 -474 251 -586 494 -63 136 -76 201 -76 378 0
177 13 242 75 377 46 100 87 160 159 237 133 140 290 228 481 271 96 22 322
14 418 -14z"/>
<path d="M1220 1950 c-150 -21 -254 -73 -366 -185 -129 -129 -184 -263 -184
-445 0 -182 55 -316 184 -445 131 -132 264 -187 446 -187 182 0 315 55 446
187 129 129 184 263 184 445 0 182 -55 316 -184 445 -145 146 -334 212 -526
185z m225 -480 l0 -295 -220 0 -220 0 0 70 0 70 148 3 147 3 0 218 c0 120 3
221 7 225 4 4 37 6 73 4 l65 -3 0 -295z"/>
</g>
</svg>
